<svg width="332" height="85" viewBox="0 0 332 85" fill="none" xmlns="http://www.w3.org/2000/svg">
<g clip-path="url(#clip0_50_1624)">
<path d="M5.94254 64.4816V26.1207H0.029541V16.0685H5.94254V14.2502C5.89986 12.173 6.20976 10.1038 6.85905 8.13025C7.45012 6.424 8.46789 4.89733 9.81555 3.69547C11.3674 2.38767 13.1978 1.45216 15.1668 0.960635C17.8243 0.296035 20.5584 -0.0121666 23.2972 0.0441206H26.5789C27.865 0.0441206 29.0476 0.147649 30.1415 0.280693V10.5102C29.1613 10.3747 28.1742 10.2957 27.185 10.2737H24.2285C22.5041 10.0962 20.7721 10.5305 19.3355 11.5006C18.8647 11.9904 18.5028 12.5741 18.2736 13.2136C18.0443 13.853 17.9528 14.5338 18.0051 15.2111V16.1128H29.2397V26.165H18.0051V64.5259L5.94254 64.4816Z" fill="white"/>
<path d="M49.3292 65.5607C46.9457 65.5989 44.5755 65.198 42.3371 64.3781C40.4265 63.6587 38.6742 62.5741 37.178 61.185C35.7718 59.8392 34.6813 58.1984 33.985 56.3807C33.2358 54.4439 32.8644 52.3815 32.8911 50.305C32.8477 48.1551 33.2191 46.017 33.985 44.0076C34.6779 42.2336 35.8065 40.6627 37.2667 39.4398C38.8651 38.1649 40.7212 37.2521 42.7067 36.7642C45.1714 36.1485 47.7056 35.8553 50.2457 35.892H64.6735V33.4233C64.702 32.0013 64.5024 30.5838 64.0822 29.225C63.7533 28.175 63.1513 27.2312 62.3378 26.4903C61.5221 25.7881 60.5562 25.2823 59.5144 25.012C58.2741 24.6907 56.9964 24.5366 55.7153 24.5538C54.5465 24.5328 53.3796 24.6569 52.2414 24.9233C51.3787 25.1167 50.5609 25.4729 49.8318 25.9728C49.2101 26.3989 48.6939 26.9613 48.3224 27.6171C47.951 28.2729 47.7341 29.0049 47.6884 29.7573H35.6259C35.7198 27.6877 36.2808 25.6662 37.2667 23.8442C38.2671 22.015 39.6544 20.4258 41.3319 19.1877C43.2486 17.7821 45.4014 16.7307 47.6884 16.0833C50.4433 15.2774 53.3034 14.8887 56.1735 14.9303C59.0235 14.9015 61.8653 15.2393 64.6291 15.9355C67.0067 16.5362 69.2193 17.6627 71.1038 19.232C72.9415 20.8241 74.3582 22.845 75.2282 25.1155C76.2738 27.8553 76.7758 30.7725 76.7064 33.7042V52.1529C76.7064 54.7103 76.7064 56.9424 76.8542 58.8641C77.0021 60.7859 77.1055 62.6633 77.3568 64.4816H66.1221C65.9891 63.3286 65.8856 62.279 65.7969 61.3329C65.7082 60.3868 65.6639 59.2781 65.6639 57.992C64.1345 60.298 62.0234 62.1594 59.5439 63.3877C58.0872 64.0922 56.5546 64.6278 54.9761 64.9842C53.1219 65.3906 51.2273 65.5841 49.3292 65.5607ZM53.0544 56.5433C54.5892 56.548 56.1152 56.3135 57.5779 55.8485C58.9421 55.4249 60.2119 54.7423 61.3178 53.8381C62.396 52.9513 63.2558 51.8284 63.8309 50.5563C64.4514 49.1924 64.7643 47.7086 64.7474 46.2102V43.7563H52.5222C50.5823 43.6365 48.6664 44.2366 47.1414 45.4416C46.526 46 46.0404 46.6864 45.7186 47.4525C45.3968 48.2187 45.2467 49.046 45.2788 49.8764C45.2458 50.758 45.3897 51.6373 45.702 52.4624C46.0143 53.2876 46.4886 54.0418 47.0971 54.6807C47.9171 55.3704 48.8661 55.8902 49.8888 56.21C50.9115 56.5297 51.9875 56.6431 53.0544 56.5433Z" fill="white"/>
<path d="M106.863 65.561C103.625 65.6188 100.395 65.2207 97.2688 64.3784C94.8715 63.7231 92.6263 62.603 90.661 61.0818C88.9786 59.7709 87.6058 58.1053 86.6402 56.2036C85.6993 54.3599 85.1222 52.3524 84.9402 50.2906H97.0027C97.1802 51.0856 97.49 51.8452 97.9192 52.5375C98.3718 53.265 98.9771 53.8853 99.6931 54.3558C100.602 54.9326 101.601 55.3524 102.65 55.5975C104.04 55.9213 105.465 56.0752 106.892 56.0558C108.425 56.0796 109.956 55.9408 111.46 55.6418C112.499 55.4187 113.496 55.0347 114.416 54.5036C115.142 54.0923 115.741 53.4887 116.146 52.7593C116.514 52.0894 116.702 51.3356 116.693 50.5714C116.706 49.8846 116.537 49.2067 116.205 48.6054C115.747 47.9198 115.114 47.3687 114.372 47.0089C113.241 46.4276 112.045 45.981 110.81 45.6784C109.331 45.294 107.38 44.9097 105.015 44.5402C102.486 44.1453 99.9828 43.5973 97.5201 42.8992C95.4192 42.3209 93.4233 41.4128 91.6071 40.2088C89.9919 39.1039 88.664 37.629 87.7341 35.9071C86.7092 33.9218 86.2008 31.7103 86.2558 29.4767C86.2458 27.5056 86.7177 25.5619 87.6306 23.8149C88.5916 21.9842 89.9688 20.4044 91.6514 19.2028C93.5951 17.7969 95.7721 16.7459 98.0818 16.0984C100.917 15.2881 103.855 14.8996 106.803 14.9454C109.811 14.8749 112.809 15.3096 115.673 16.2315C117.886 16.9636 119.932 18.1295 121.689 19.661C123.222 21.0146 124.451 22.6771 125.296 24.5393C126.143 26.3389 126.707 28.2587 126.967 30.2305H114.919C114.547 28.568 113.613 27.085 112.273 26.0323C110.689 24.9522 108.79 24.432 106.877 24.5541C105.525 24.5273 104.175 24.6663 102.857 24.9679C101.908 25.1701 101.009 25.5569 100.211 26.1062C99.5838 26.5157 99.0744 27.0812 98.7323 27.7471C98.4672 28.353 98.3312 29.0074 98.3331 29.6688C98.3138 30.4049 98.5372 31.127 98.9688 31.7236C99.4982 32.3831 100.17 32.9138 100.935 33.2758C102.038 33.8152 103.205 34.2126 104.409 34.4584C106.076 34.843 107.764 35.1341 109.464 35.3306C112.069 35.6349 114.648 36.129 117.181 36.8088C119.346 37.3912 121.4 38.3304 123.256 39.588C125.023 40.7723 126.455 42.3911 127.416 44.2886C128.376 46.1862 128.832 48.2988 128.741 50.4236C128.761 52.5235 128.29 54.599 127.366 56.4845C126.414 58.4008 125.002 60.0515 123.256 61.2888C121.187 62.7483 118.867 63.8155 116.412 64.4375C113.293 65.2334 110.082 65.6112 106.863 65.561Z" fill="white"/>
<path d="M156.827 65.0287C154.336 65.0716 151.849 64.7782 149.436 64.1565C147.513 63.6815 145.748 62.7077 144.321 61.3331C142.949 59.9347 141.935 58.2257 141.365 56.3513C140.666 53.9516 140.342 51.4585 140.404 48.96V26.1209H134.003V16.0687H140.404V5.11475H152.452V16.0687H164.145V26.1209H152.452V47.127C152.432 48.2934 152.541 49.4584 152.777 50.6009C152.942 51.4801 153.334 52.3007 153.915 52.9808C154.513 53.6182 155.267 54.0871 156.103 54.3408C157.229 54.6785 158.402 54.8332 159.577 54.7991H162.326C163.228 54.7991 164.145 54.6957 165.061 54.5774V64.6147C163.908 64.7478 162.696 64.8513 161.454 64.94C160.213 65.0287 158.646 65.0287 156.827 65.0287Z" fill="white"/>
<path d="M192.01 65.5611C189.113 65.6027 186.237 65.0596 183.554 63.9645C181.065 62.9259 178.846 61.3334 177.065 59.308C175.151 57.0415 173.735 54.3971 172.911 51.5472C171.877 48.035 171.379 44.387 171.433 40.7263V38.9524C171.385 35.4473 171.884 31.9562 172.911 28.6045C173.748 25.8492 175.148 23.2973 177.02 21.1097C178.795 19.0882 181.017 17.5089 183.51 16.4976C186.229 15.4262 189.132 14.8988 192.054 14.9454C195.057 14.9117 198.021 15.6335 200.672 17.0445C203.244 18.4318 205.406 20.471 206.94 22.9576V0.517578H218.988V64.4524H207.842V57.0611C207.178 58.2369 206.368 59.3246 205.432 60.2985C204.403 61.3806 203.217 62.3024 201.914 63.0332C200.516 63.8234 199.027 64.4391 197.479 64.8663C195.697 65.3491 193.856 65.5829 192.01 65.5611ZM194.966 55.4202C196.593 55.4384 198.208 55.1474 199.726 54.5628C201.16 53.9976 202.452 53.1246 203.511 52.0054C204.609 50.8296 205.463 49.4479 206.024 47.9402C206.657 46.213 206.968 44.384 206.94 42.5445V37.0749C206.969 35.3555 206.658 33.6473 206.024 32.0489C205.446 30.6288 204.591 29.3374 203.511 28.2498C202.442 27.1882 201.149 26.3799 199.726 25.8845C198.196 25.353 196.586 25.0881 194.966 25.1011C193.415 25.0862 191.877 25.3827 190.443 25.9732C189.072 26.5566 187.853 27.4467 186.88 28.5749C185.826 29.8262 185.05 31.2876 184.604 32.8619C184.051 34.8235 183.787 36.8554 183.82 38.8933V40.7263C183.786 42.8838 184.065 45.0349 184.648 47.1124C185.111 48.777 185.905 50.3308 186.984 51.6802C187.946 52.8677 189.164 53.8227 190.546 54.4741C191.931 55.1164 193.44 55.4446 194.966 55.435V55.4202Z" fill="#D1F452"/>
<path d="M246.705 65.561C241.038 65.561 236.747 63.9497 233.83 60.7271C230.912 57.5044 229.434 52.5769 229.395 45.9444V16.0688H241.443V44.3036C241.236 47.2329 242.028 50.1456 243.689 52.5671C245.168 54.4149 247.592 55.3462 250.948 55.3462C252.557 55.3879 254.158 55.096 255.648 54.4888C256.912 53.9407 258.035 53.1115 258.93 52.0645C259.814 51.0253 260.469 49.8114 260.852 48.5019C261.25 47.1382 261.449 45.7242 261.443 44.3036V16.0688H273.506V64.4819H262.36V57.0906C261.778 58.2974 261.01 59.4048 260.083 60.3723C259.079 61.4336 257.924 62.3403 256.654 63.0627C255.262 63.8654 253.771 64.4817 252.219 64.8958C250.419 65.3618 248.564 65.5855 246.705 65.561Z" fill="#D1F452"/>
<path d="M284.504 82.7531V16.0687H295.65V23.46C296.365 22.2476 297.223 21.1258 298.207 20.1192C299.26 19.0441 300.459 18.1233 301.77 17.3843C303.165 16.603 304.656 16.0068 306.205 15.6105C307.918 15.1661 309.682 14.9474 311.452 14.96C314.427 14.896 317.387 15.3976 320.174 16.4383C322.652 17.4105 324.862 18.9615 326.619 20.9618C328.463 23.1142 329.828 25.6335 330.625 28.3531C331.601 31.7489 332.065 35.2716 332 38.8044V40.6374C332.054 44.2982 331.555 47.9461 330.522 51.4583C329.703 54.3106 328.287 56.9561 326.368 59.2192C324.591 61.2427 322.377 62.835 319.893 63.8756C317.221 64.998 314.351 65.5712 311.452 65.5609C308.489 65.625 305.559 64.9192 302.95 63.5122C300.341 62.1053 298.141 60.0454 296.566 57.5339V82.6644L284.504 82.7531ZM308.525 55.4348C310.055 55.4483 311.569 55.1253 312.96 54.4887C314.343 53.8374 315.561 52.8823 316.523 51.6948C317.597 50.3443 318.386 48.7906 318.844 47.127C319.434 45.051 319.713 42.8988 319.671 40.7409V38.9522C319.702 36.9155 319.443 34.8847 318.903 32.9209C318.444 31.3486 317.664 29.8889 316.611 28.6339C315.641 27.5025 314.422 26.6119 313.049 26.0322C311.615 25.4402 310.077 25.1435 308.525 25.16C306.911 25.1481 305.306 25.4131 303.78 25.9435C302.356 26.4352 301.062 27.2439 299.996 28.3087C298.911 29.3925 298.056 30.6849 297.483 32.1078C296.842 33.7043 296.53 35.4139 296.566 37.1339V42.6034C296.531 44.4435 296.842 46.2738 297.483 47.9991C298.038 49.5097 298.893 50.8924 299.996 52.0644C301.051 53.188 302.344 54.0618 303.78 54.6217C305.297 55.1897 306.907 55.4656 308.525 55.4348Z" fill="#D1F452"/>
</g>
<defs>
<clipPath id="clip0_50_1624">
<rect width="332" height="85" fill="white"/>
</clipPath>
</defs>
</svg>
